<svg width="199" height="56" viewBox="0 0 199 56" fill="none" xmlns="http://www.w3.org/2000/svg">
<rect width="199" height="56" rx="12" fill="url(#paint0_linear_3_12)"/>
<path d="M22.6 21.575C22.35 21.2917 22.0583 21.0417 21.725 20.825C21.3917 20.5917 21.0167 20.3917 20.6 20.225C20.1833 20.0583 19.7333 19.925 19.25 19.825C18.7833 19.725 18.2833 19.675 17.75 19.675C16.2 19.675 15.0583 19.975 14.325 20.575C13.6083 21.1583 13.25 21.9583 13.25 22.975C13.25 23.675 13.4167 24.225 13.75 24.625C14.1 25.025 14.6417 25.35 15.375 25.6C16.1083 25.85 17.0417 26.1083 18.175 26.375C19.4417 26.6417 20.5333 26.9583 21.45 27.325C22.3667 27.6917 23.075 28.1917 23.575 28.825C24.075 29.4417 24.325 30.2833 24.325 31.35C24.325 32.1667 24.1667 32.875 23.85 33.475C23.5333 34.075 23.0917 34.575 22.525 34.975C21.9583 35.375 21.2833 35.675 20.5 35.875C19.7167 36.0583 18.8583 36.15 17.925 36.15C17.0083 36.15 16.125 36.0583 15.275 35.875C14.4417 35.675 13.65 35.3917 12.9 35.025C12.15 34.6417 11.45 34.1583 10.8 33.575L11.675 32.15C11.9917 32.4833 12.3667 32.8 12.8 33.1C13.25 33.3833 13.7417 33.6417 14.275 33.875C14.825 34.1083 15.4083 34.2917 16.025 34.425C16.6583 34.5417 17.3083 34.6 17.975 34.6C19.3917 34.6 20.4917 34.3417 21.275 33.825C22.075 33.3083 22.475 32.5417 22.475 31.525C22.475 30.7917 22.275 30.2083 21.875 29.775C21.475 29.325 20.875 28.9583 20.075 28.675C19.275 28.3917 18.2917 28.1167 17.125 27.85C15.8917 27.5667 14.85 27.25 14 26.9C13.15 26.55 12.5083 26.0917 12.075 25.525C11.6583 24.9417 11.45 24.175 11.45 23.225C11.45 22.125 11.7167 21.2 12.25 20.45C12.8 19.6833 13.55 19.1083 14.5 18.725C15.45 18.325 16.5417 18.125 17.775 18.125C18.5583 18.125 19.2833 18.2083 19.95 18.375C20.6333 18.525 21.2583 18.75 21.825 19.05C22.4083 19.35 22.95 19.725 23.45 20.175L22.6 21.575ZM27.0605 36V22.975H28.7605V36H27.0605ZM27.0605 20.25V17.75H28.7605V20.25H27.0605ZM37.7299 36.175C36.8465 36.175 36.0299 35.9917 35.2799 35.625C34.5299 35.2583 33.8799 34.7667 33.3299 34.15C32.7965 33.5167 32.3799 32.8 32.0799 32C31.7799 31.2 31.6299 30.375 31.6299 29.525C31.6299 28.6083 31.7715 27.75 32.0549 26.95C32.3549 26.1333 32.7715 25.4083 33.3049 24.775C33.8549 24.1417 34.4965 23.65 35.2299 23.3C35.9632 22.9333 36.7799 22.75 37.6799 22.75C38.7965 22.75 39.7632 23.0333 40.5799 23.6C41.4132 24.1667 42.1132 24.8667 42.6799 25.7V22.975H44.2049V36.05C44.2049 37.25 43.9132 38.2583 43.3299 39.075C42.7632 39.9083 41.9882 40.5333 41.0049 40.95C40.0382 41.3667 38.9799 41.575 37.8299 41.575C36.3465 41.575 35.1465 41.3083 34.2299 40.775C33.3132 40.2417 32.5632 39.525 31.9799 38.625L33.0299 37.8C33.5465 38.6167 34.2299 39.225 35.0799 39.625C35.9465 40.025 36.8632 40.225 37.8299 40.225C38.6799 40.225 39.4549 40.0667 40.1549 39.75C40.8715 39.45 41.4382 38.9917 41.8549 38.375C42.2882 37.7583 42.5049 36.9833 42.5049 36.05V33.475C42.0049 34.2917 41.3215 34.95 40.4549 35.45C39.5882 35.9333 38.6799 36.175 37.7299 36.175ZM38.2049 34.75C38.7215 34.75 39.2132 34.6583 39.6799 34.475C40.1632 34.2917 40.6049 34.05 41.0049 33.75C41.4049 33.4333 41.7382 33.0833 42.0049 32.7C42.2715 32.3167 42.4382 31.925 42.5049 31.525V27.5C42.2549 26.8667 41.8965 26.3083 41.4299 25.825C40.9632 25.325 40.4299 24.9417 39.8299 24.675C39.2465 24.3917 38.6382 24.25 38.0049 24.25C37.2715 24.25 36.6132 24.4083 36.0299 24.725C35.4632 25.025 34.9799 25.4333 34.5799 25.95C34.1965 26.45 33.8965 27.0167 33.6799 27.65C33.4632 28.2833 33.3549 28.9167 33.3549 29.55C33.3549 30.25 33.4799 30.9167 33.7299 31.55C33.9799 32.1667 34.3215 32.725 34.7549 33.225C35.2049 33.7083 35.7215 34.0833 36.3049 34.35C36.9049 34.6167 37.5382 34.75 38.2049 34.75ZM58.909 36H57.209V28.725C57.209 27.1917 56.984 26.075 56.534 25.375C56.084 24.6583 55.3757 24.3 54.409 24.3C53.7423 24.3 53.084 24.4667 52.434 24.8C51.784 25.1167 51.209 25.5583 50.709 26.125C50.2257 26.675 49.8757 27.3083 49.659 28.025V36H47.959V22.975H49.509V25.925C49.859 25.2917 50.3173 24.7417 50.884 24.275C51.4507 23.7917 52.0923 23.4167 52.809 23.15C53.5257 22.8833 54.2673 22.75 55.034 22.75C55.7507 22.75 56.359 22.8833 56.859 23.15C57.359 23.4167 57.759 23.8 58.059 24.3C58.359 24.7833 58.5757 25.375 58.709 26.075C58.8423 26.7583 58.909 27.525 58.909 28.375V36ZM76.4813 36.125C75.0813 36.125 73.8979 35.875 72.9313 35.375C71.9646 34.875 71.1979 34.2083 70.6313 33.375C70.0646 32.525 69.6479 31.5667 69.3813 30.5C69.1313 29.4333 69.0063 28.3333 69.0063 27.2V18.25H70.7313V27.2C70.7313 28.1167 70.8229 29.0167 71.0063 29.9C71.2063 30.7833 71.5229 31.575 71.9563 32.275C72.3896 32.975 72.9729 33.5333 73.7063 33.95C74.4396 34.35 75.3563 34.55 76.4563 34.55C77.5896 34.55 78.5229 34.3417 79.2563 33.925C80.0063 33.4917 80.5896 32.925 81.0063 32.225C81.4396 31.525 81.7479 30.7417 81.9313 29.875C82.1146 28.9917 82.2063 28.1 82.2063 27.2V18.25H83.9563V27.2C83.9563 28.3833 83.8229 29.5167 83.5563 30.6C83.2896 31.6833 82.8563 32.6333 82.2563 33.45C81.6729 34.2667 80.9063 34.9167 79.9563 35.4C79.0063 35.8833 77.8479 36.125 76.4813 36.125ZM94.2818 36.25C93.1985 36.25 92.2235 35.9667 91.3568 35.4C90.5068 34.8333 89.8318 34.1333 89.3318 33.3V41.325H87.6318V22.975H89.1568V25.5C89.6735 24.6833 90.3652 24.025 91.2318 23.525C92.0985 23.0083 93.0235 22.75 94.0068 22.75C94.9068 22.75 95.7318 22.9417 96.4818 23.325C97.2318 23.6917 97.8818 24.1917 98.4318 24.825C98.9818 25.4583 99.4068 26.1833 99.7068 27C100.024 27.8 100.182 28.6333 100.182 29.5C100.182 30.7167 99.9318 31.8417 99.4318 32.875C98.9485 33.8917 98.2652 34.7083 97.3818 35.325C96.4985 35.9417 95.4652 36.25 94.2818 36.25ZM93.8068 34.75C94.5235 34.75 95.1652 34.6083 95.7318 34.325C96.2985 34.025 96.7818 33.625 97.1818 33.125C97.5985 32.625 97.9152 32.0667 98.1318 31.45C98.3485 30.8167 98.4568 30.1667 98.4568 29.5C98.4568 28.8 98.3318 28.1333 98.0818 27.5C97.8485 26.8667 97.5068 26.3083 97.0568 25.825C96.6068 25.3417 96.0902 24.9583 95.5068 24.675C94.9235 24.3917 94.2902 24.25 93.6068 24.25C93.1735 24.25 92.7235 24.3333 92.2568 24.5C91.7902 24.6667 91.3402 24.9083 90.9068 25.225C90.4902 25.525 90.1402 25.8667 89.8568 26.25C89.5735 26.6333 89.3985 27.0417 89.3318 27.475V31.475C89.5985 32.0917 89.9568 32.65 90.4068 33.15C90.8568 33.6333 91.3735 34.025 91.9568 34.325C92.5568 34.6083 93.1735 34.75 93.8068 34.75ZM109.184 29.975V28.4H116.484V29.975H109.184ZM126.703 36V18.25H128.453V34.45H138.703V36H126.703ZM146.185 36.25C145.251 36.25 144.385 36.075 143.585 35.725C142.801 35.3583 142.118 34.8667 141.535 34.25C140.968 33.6167 140.526 32.9 140.21 32.1C139.893 31.2833 139.735 30.425 139.735 29.525C139.735 28.5917 139.893 27.725 140.21 26.925C140.526 26.1083 140.976 25.3917 141.56 24.775C142.143 24.1417 142.826 23.65 143.61 23.3C144.41 22.9333 145.276 22.75 146.21 22.75C147.143 22.75 148.001 22.9333 148.785 23.3C149.568 23.65 150.251 24.1417 150.835 24.775C151.418 25.3917 151.868 26.1083 152.185 26.925C152.501 27.725 152.66 28.5917 152.66 29.525C152.66 30.425 152.501 31.2833 152.185 32.1C151.868 32.9 151.418 33.6167 150.835 34.25C150.268 34.8667 149.585 35.3583 148.785 35.725C148.001 36.075 147.135 36.25 146.185 36.25ZM141.46 29.55C141.46 30.5167 141.668 31.4 142.085 32.2C142.518 32.9833 143.093 33.6083 143.81 34.075C144.526 34.525 145.318 34.75 146.185 34.75C147.051 34.75 147.843 34.5167 148.56 34.05C149.276 33.5833 149.851 32.95 150.285 32.15C150.718 31.3333 150.935 30.45 150.935 29.5C150.935 28.5333 150.718 27.65 150.285 26.85C149.851 26.05 149.276 25.4167 148.56 24.95C147.843 24.4833 147.051 24.25 146.185 24.25C145.318 24.25 144.526 24.4917 143.81 24.975C143.11 25.4583 142.543 26.1 142.11 26.9C141.676 27.6833 141.46 28.5667 141.46 29.55ZM160.728 36.175C159.845 36.175 159.028 35.9917 158.278 35.625C157.528 35.2583 156.878 34.7667 156.328 34.15C155.795 33.5167 155.378 32.8 155.078 32C154.778 31.2 154.628 30.375 154.628 29.525C154.628 28.6083 154.77 27.75 155.053 26.95C155.353 26.1333 155.77 25.4083 156.303 24.775C156.853 24.1417 157.495 23.65 158.228 23.3C158.961 22.9333 159.778 22.75 160.678 22.75C161.795 22.75 162.761 23.0333 163.578 23.6C164.411 24.1667 165.111 24.8667 165.678 25.7V22.975H167.203V36.05C167.203 37.25 166.911 38.2583 166.328 39.075C165.761 39.9083 164.986 40.5333 164.003 40.95C163.036 41.3667 161.978 41.575 160.828 41.575C159.345 41.575 158.145 41.3083 157.228 40.775C156.311 40.2417 155.561 39.525 154.978 38.625L156.028 37.8C156.545 38.6167 157.228 39.225 158.078 39.625C158.945 40.025 159.861 40.225 160.828 40.225C161.678 40.225 162.453 40.0667 163.153 39.75C163.87 39.45 164.436 38.9917 164.853 38.375C165.286 37.7583 165.503 36.9833 165.503 36.05V33.475C165.003 34.2917 164.32 34.95 163.453 35.45C162.586 35.9333 161.678 36.175 160.728 36.175ZM161.203 34.75C161.72 34.75 162.211 34.6583 162.678 34.475C163.161 34.2917 163.603 34.05 164.003 33.75C164.403 33.4333 164.736 33.0833 165.003 32.7C165.27 32.3167 165.436 31.925 165.503 31.525V27.5C165.253 26.8667 164.895 26.3083 164.428 25.825C163.961 25.325 163.428 24.9417 162.828 24.675C162.245 24.3917 161.636 24.25 161.003 24.25C160.27 24.25 159.611 24.4083 159.028 24.725C158.461 25.025 157.978 25.4333 157.578 25.95C157.195 26.45 156.895 27.0167 156.678 27.65C156.461 28.2833 156.353 28.9167 156.353 29.55C156.353 30.25 156.478 30.9167 156.728 31.55C156.978 32.1667 157.32 32.725 157.753 33.225C158.203 33.7083 158.72 34.0833 159.303 34.35C159.903 34.6167 160.536 34.75 161.203 34.75ZM170.957 36V22.975H172.657V36H170.957ZM170.957 20.25V17.75H172.657V20.25H170.957ZM187.351 36H185.651V28.725C185.651 27.1917 185.426 26.075 184.976 25.375C184.526 24.6583 183.818 24.3 182.851 24.3C182.185 24.3 181.526 24.4667 180.876 24.8C180.226 25.1167 179.651 25.5583 179.151 26.125C178.668 26.675 178.318 27.3083 178.101 28.025V36H176.401V22.975H177.951V25.925C178.301 25.2917 178.76 24.7417 179.326 24.275C179.893 23.7917 180.535 23.4167 181.251 23.15C181.968 22.8833 182.71 22.75 183.476 22.75C184.193 22.75 184.801 22.8833 185.301 23.15C185.801 23.4167 186.201 23.8 186.501 24.3C186.801 24.7833 187.018 25.375 187.151 26.075C187.285 26.7583 187.351 27.525 187.351 28.375V36Z" fill="black"/>
<defs>
<linearGradient id="paint0_linear_3_12" x1="-945.5" y1="-359" x2="228.5" y2="139.5" gradientUnits="userSpaceOnUse">
<stop/>
<stop offset="1" stop-color="#FDB700"/>
</linearGradient>
</defs>
</svg>
