<svg width="1369" height="902" viewBox="0 0 1369 902" fill="none" xmlns="http://www.w3.org/2000/svg">
<path d="M180.5 124C334 483 444.5 21.5 530 31C615.5 40.5 323 312.5 570 156.5C817 0.5 621 456.5 881.5 392C893.027 389.146 904.301 385.699 915.296 381.731C790.669 267.332 786.227 196.035 978.5 103C1259.97 -33.1943 1152.76 296.018 915.296 381.731C981.557 442.554 1081.79 515.562 1204.5 610.5C1558 884 1328 1149.5 627 847.5C376.282 739.487 241.458 720.89 173.964 730.722C137.714 844.619 60.2101 747.293 173.964 730.722C176.342 723.251 178.543 714.871 180.5 705.5C230 468.5 31 978.5 -60.5 811.5C-152 644.5 -51.1 349.1 -43.5 327.5C-35.9 305.9 27 -235 180.5 124Z" fill="url(#paint0_linear_3_16)" fill-opacity="0.29" stroke="black" stroke-opacity="0.03"/>
<defs>
<linearGradient id="paint0_linear_3_16" x1="105" y1="312" x2="1451.5" y2="1000" gradientUnits="userSpaceOnUse">
<stop stop-color="#FDB700"/>
<stop offset="1" stop-color="#D7A626" stop-opacity="0"/>
</linearGradient>
</defs>
</svg>
